<?xml version="1.0" standalone="no"?><!DOCTYPE svg PUBLIC "-//W3C//DTD SVG 1.1//EN" "http://www.w3.org/Graphics/SVG/1.1/DTD/svg11.dtd"><svg t="1754578743070" class="icon" viewBox="0 0 1024 1024" version="1.1" xmlns="http://www.w3.org/2000/svg" p-id="11076" xmlns:xlink="http://www.w3.org/1999/xlink" width="200" height="200"><path d="M327.552 96H118.848c-3.84 0-6.848 3.584-6.848 8V308.48c0 4.416 3.072 8 6.848 8h208.64c3.776 0 6.848-3.584 6.848-8V103.936c0-4.416-3.072-7.936-6.784-7.936z m551.168 294.4c18.432 0 33.28 11.136 33.216 24.832v487.936c0 13.696-14.912 24.832-33.28 24.832H145.216c-18.368 0-33.28-11.136-33.28-24.832V415.232c0-13.696 14.912-24.832 33.28-24.832h733.44z m-38.528 71.68H183.68v394.24h656.512V462.08zM616.32 96c3.776 0 6.784 3.584 6.784 8V308.48c0 4.416-3.072 8-6.784 8H407.616c-3.776 0-6.848-3.584-6.848-8V103.936c0-4.416 3.072-8 6.848-8h208.64V96z m-44.416 51.2H451.968v118.016h119.936V147.2z m333.184-51.2c3.776 0 6.848 3.584 6.848 8V308.48c0 4.416-3.072 8-6.848 8H696.32c-3.776 0-6.848-3.584-6.848-8V103.936c0-4.416 3.136-8 6.848-8h208.64V96z m-44.416 51.2h-119.872v118.016h119.872V147.2z"  p-id="11077"></path></svg>
