<?xml version="1.0" standalone="no"?><!DOCTYPE svg PUBLIC "-//W3C//DTD SVG 1.1//EN" "http://www.w3.org/Graphics/SVG/1.1/DTD/svg11.dtd"><svg t="1758852916058" class="icon" viewBox="0 0 1024 1024" version="1.1" xmlns="http://www.w3.org/2000/svg" p-id="2707" xmlns:xlink="http://www.w3.org/1999/xlink" width="256" height="256"><path d="M160 128a64 64 0 0 1 64-64h384.128L864 320v576a64 64 0 0 1-64 64H224a64 64 0 0 1-64-64V128z" fill="#63CF6A" p-id="2708"></path><path d="M863.68 320H656A48 48 0 0 1 608 272V64.32L863.68 320z" fill="#B8F9BC" p-id="2709"></path><path d="M572.928 681.216h33.024l63.744 146.432h0.768l63.488-146.432h33.024V864h-27.904v-130.56h-1.024L681.984 864h-24.064l-56.064-130.56h-1.024V864h-27.904v-182.784zM408.928 681.216h131.328v23.808H436.8v53.248h97.28v23.808h-97.28v58.112h107.776V864h-135.68v-182.784zM241.92 681.216h75.776c43.52 0 65.28 18.432 65.28 55.552 0 37.376-22.016 56.064-65.792 56.064h-47.36V864H241.92v-182.784z m27.904 23.808v64h45.568c13.824 0 23.808-2.56 30.208-7.68 6.144-5.12 9.472-13.312 9.472-24.576 0-11.264-3.328-19.456-9.728-24.064-6.4-5.12-16.384-7.68-29.952-7.68H269.824z" fill="#FFFFFF" p-id="2710"></path></svg>